<?xml version="1.0" encoding="UTF-8" standalone="no"?>
<svg
   width="400"
   height="80"
   viewBox="0 0 399.99999 79.999999"
   version="1.1"
   id="svg16"
   sodipodi:docname="cobolcloud.svg"
   inkscape:version="1.4.2 (ebf0e940d0, 2025-05-08)"
   xmlns:inkscape="http://www.inkscape.org/namespaces/inkscape"
   xmlns:sodipodi="http://sodipodi.sourceforge.net/DTD/sodipodi-0.dtd"
   xmlns="http://www.w3.org/2000/svg"
   xmlns:svg="http://www.w3.org/2000/svg">
  <defs
     id="defs16" />
  <sodipodi:namedview
     id="namedview16"
     pagecolor="#ffffff"
     bordercolor="#000000"
     borderopacity="0.25"
     inkscape:showpageshadow="2"
     inkscape:pageopacity="0.0"
     inkscape:pagecheckerboard="0"
     inkscape:deskcolor="#d1d1d1"
     inkscape:zoom="0.86533083"
     inkscape:cx="252.50458"
     inkscape:cy="295.2628"
     inkscape:window-width="990"
     inkscape:window-height="1150"
     inkscape:window-x="0"
     inkscape:window-y="0"
     inkscape:window-maximized="1"
     inkscape:current-layer="svg16" />
  <rect
     style="fill:#121223;stroke-width:0.894427;fill-opacity:1"
     id="rect16"
     width="400"
     height="80"
     x="0"
     y="0" />
  <g
     id="g16"
     transform="translate(41.511204,18.037001)">
    <path
       d="m 87.036,11.334 a 12,12 0 0 0 -8.914,3.774 13.1,13.1 0 0 0 0,18.262 12,12 0 0 0 8.914,3.775 12.242,12.242 0 0 0 5.913,-1.5 12.6,12.6 0 0 0 4.548,-4.162 1.945,1.945 0 0 1 1.342,-0.909 2.244,2.244 0 0 1 0.455,-0.046 2.086,2.086 0 0 1 2.046,1.7 2.318,2.318 0 0 1 0.046,0.455 2.045,2.045 0 0 1 -0.341,1.137 16.712,16.712 0 0 1 -6.072,5.572 16.526,16.526 0 0 1 -7.937,2 16.085,16.085 0 0 1 -11.916,-5.025 17.323,17.323 0 0 1 0,-24.267 16.053,16.053 0 0 1 11.916,-5.048 16.4,16.4 0 0 1 7.937,2.027 16.728,16.728 0 0 1 6.072,5.572 2.061,2.061 0 0 1 0.364,1.16 2.154,2.154 0 0 1 -0.046,0.431 2.088,2.088 0 0 1 -2.046,1.706 2.39,2.39 0 0 1 -0.478,-0.045 1.949,1.949 0 0 1 -1.342,-0.91 12.6,12.6 0 0 0 -4.548,-4.161 12.244,12.244 0 0 0 -5.913,-1.498 z"
       style="fill:#ffffff"
       id="path1" />
    <path
       d="m 114.838,15.746 a 12.046,12.046 0 0 1 8.915,3.774 12.932,12.932 0 0 1 0,18.125 12.466,12.466 0 0 1 -17.629,0.2 c -0.068,-0.066 -0.135,-0.132 -0.2,-0.2 a 12.93,12.93 0 0 1 0,-18.125 12,12 0 0 1 8.914,-3.774 z m 0,21.4 a 7.983,7.983 0 0 0 5.913,-2.505 8.707,8.707 0 0 0 0,-12.121 8.237,8.237 0 0 0 -11.649,-0.176 c -0.06,0.057 -0.118,0.116 -0.176,0.176 a 8.7,8.7 0 0 0 0,12.121 7.981,7.981 0 0 0 5.912,2.504 z"
       style="fill:#ffffff"
       id="path2" />
    <path
       d="m 142.093,15.746 a 12.046,12.046 0 0 1 8.914,3.774 12.989,12.989 0 0 1 0,18.125 12.461,12.461 0 0 1 -17.283,0.523 v 1.114 a 2.043,2.043 0 0 1 -0.614,1.5 2.089,2.089 0 0 1 -1.5,0.614 2.115,2.115 0 0 1 -1.524,-0.614 2.043,2.043 0 0 1 -0.614,-1.5 V 9.196 a 2.043,2.043 0 0 1 0.614,-1.5 2.084,2.084 0 0 1 1.524,-0.637 2.136,2.136 0 0 1 2.114,2.138 v 9.779 a 12.132,12.132 0 0 1 8.369,-3.23 z m 0,21.4 a 7.983,7.983 0 0 0 5.912,-2.505 8.767,8.767 0 0 0 0,-12.121 8.238,8.238 0 0 0 -11.648,-0.177 q -0.09,0.087 -0.177,0.177 a 8.7,8.7 0 0 0 0,12.121 7.985,7.985 0 0 0 5.913,2.504 z"
       style="fill:#ffffff"
       id="path3" />
    <path
       d="m 167.965,15.746 a 12.046,12.046 0 0 1 8.915,3.774 12.932,12.932 0 0 1 0,18.125 12.466,12.466 0 0 1 -17.629,0.2 c -0.068,-0.066 -0.135,-0.132 -0.2,-0.2 a 12.932,12.932 0 0 1 0,-18.125 12,12 0 0 1 8.914,-3.774 z m 0,21.4 a 7.983,7.983 0 0 0 5.913,-2.505 8.7,8.7 0 0 0 0,-12.121 8.237,8.237 0 0 0 -11.649,-0.176 c -0.06,0.057 -0.119,0.116 -0.177,0.176 a 8.707,8.707 0 0 0 0,12.121 7.985,7.985 0 0 0 5.913,2.504 z"
       style="fill:#ffffff"
       id="path4" />
    <path
       d="m 185.194,7.058 a 2.136,2.136 0 0 1 2.113,2.138 v 30.086 a 2.035,2.035 0 0 1 -0.614,1.5 2.088,2.088 0 0 1 -1.5,0.614 2.115,2.115 0 0 1 -1.524,-0.614 2.033,2.033 0 0 1 -0.614,-1.5 V 9.196 a 2.039,2.039 0 0 1 0.614,-1.5 2.081,2.081 0 0 1 1.525,-0.638 z"
       style="fill:#ffffff"
       id="path5" />
    <path
       d="m 206.858,9.309 a 13.9,13.9 0 0 0 -10.3,4.367 15.13,15.13 0 0 0 0,21.081 13.892,13.892 0 0 0 10.3,4.37 14.076,14.076 0 0 0 6.845,-1.75 14.435,14.435 0 0 0 5.253,-4.822 1.131,1.131 0 0 1 0.728,-0.478 1.335,1.335 0 0 1 0.228,-0.023 1.091,1.091 0 0 1 0.614,0.182 1.117,1.117 0 0 1 0.5,0.728 1.089,1.089 0 0 1 0.023,0.228 1.055,1.055 0 0 1 -0.205,0.614 16.52,16.52 0 0 1 -6.049,5.571 16.3,16.3 0 0 1 -7.937,2.02 16.1,16.1 0 0 1 -11.917,-5.048 17.38,17.38 0 0 1 0,-24.267 16.1,16.1 0 0 1 11.917,-5.048 16.525,16.525 0 0 1 7.936,2 16.907,16.907 0 0 1 6.072,5.594 1.075,1.075 0 0 1 0.182,0.614 1.089,1.089 0 0 1 -0.023,0.228 1.135,1.135 0 0 1 -0.477,0.728 1.192,1.192 0 0 1 -0.636,0.181 1.159,1.159 0 0 1 -0.228,-0.022 1.131,1.131 0 0 1 -0.728,-0.478 14.388,14.388 0 0 0 -5.253,-4.844 14.218,14.218 0 0 0 -6.845,-1.726 z"
       style="fill:#ffffff"
       id="path6" />
    <path
       d="m 224.766,7.035 a 1.165,1.165 0 0 1 1.137,1.138 V 40.26 a 1.138,1.138 0 0 1 -1.9,0.833 l -0.037,-0.036 a 1.09,1.09 0 0 1 -0.341,-0.8 V 8.173 a 1.165,1.165 0 0 1 1.137,-1.138 z"
       style="fill:#ffffff"
       id="path7" />
    <path
       d="m 241.038,16.291 a 11.759,11.759 0 0 1 8.71,3.684 12.685,12.685 0 0 1 0,17.738 12.139,12.139 0 0 1 -17.164,0.256 c -0.087,-0.084 -0.172,-0.169 -0.256,-0.256 a 12.685,12.685 0 0 1 0,-17.738 11.759,11.759 0 0 1 8.71,-3.684 z m 0,22.832 a 9.519,9.519 0 0 0 7.095,-3.024 10.377,10.377 0 0 0 0,-14.509 9.862,9.862 0 0 0 -13.946,-0.266 c -0.091,0.087 -0.18,0.175 -0.267,0.266 a 10.438,10.438 0 0 0 0,14.509 9.6,9.6 0 0 0 7.118,3.028 z"
       style="fill:#ffffff"
       id="path8" />
    <path
       d="m 275.504,16.359 a 1.125,1.125 0 0 1 1.115,1.134 v 22.789 a 1.087,1.087 0 0 1 -1.061,1.115 h -0.057 a 1.151,1.151 0 0 1 -0.818,-0.318 1.131,1.131 0 0 1 -0.319,-0.8 v -3.752 a 9.915,9.915 0 0 1 -8.6,4.867 9.773,9.773 0 0 1 -7.665,-3.66 13.028,13.028 0 0 1 -3.183,-8.846 V 17.427 a 1.139,1.139 0 0 1 1.89,-0.839 c 0.015,0.014 0.029,0.029 0.043,0.043 a 1.094,1.094 0 0 1 0.341,0.8 v 11.458 a 10.815,10.815 0 0 0 2.524,7.231 7.582,7.582 0 0 0 12.121,0 10.809,10.809 0 0 0 2.525,-7.231 V 17.496 a 1.082,1.082 0 0 1 0.318,-0.8 1.115,1.115 0 0 1 0.826,-0.337 z"
       style="fill:#ffffff"
       id="path9" />
    <path
       d="m 303.329,40.26 a 1.164,1.164 0 0 1 -1.137,1.137 1.046,1.046 0 0 1 -0.8,-0.34 1.1,1.1 0 0 1 -0.341,-0.8 V 36.076 A 11.638,11.638 0 0 1 291,41.399 a 11.768,11.768 0 0 1 -8.711,-3.684 12.685,12.685 0 0 1 0,-17.738 11.761,11.761 0 0 1 8.711,-3.684 11.634,11.634 0 0 1 10.058,5.323 V 8.173 a 1.164,1.164 0 0 1 1.137,-1.138 1.1,1.1 0 0 1 0.8,0.341 1.044,1.044 0 0 1 0.341,0.8 z m -12.325,-1.133 a 9.525,9.525 0 0 0 7.095,-3.024 10.379,10.379 0 0 0 0,-14.509 9.863,9.863 0 0 0 -13.941,-0.267 q -0.137,0.131 -0.267,0.267 a 10.436,10.436 0 0 0 0,14.509 9.594,9.594 0 0 0 7.113,3.024 z"
       style="fill:#ffffff"
       id="path10" />
    <circle
       cx="313.892"
       cy="37.939999"
       r="3.092"
       style="fill:#66b8ff"
       id="circle10" />
    <path
       d="m 49.251,43.927 h -21 A 2.348,2.348 0 0 1 25.903,41.579 V 23.796 a 2.35,2.35 0 0 1 4.7,0 v 15.431 h 18.63 a 8.014,8.014 0 0 0 1.2,-0.107 7.029,7.029 0 0 0 -1.2,-13.956 v 0 a 2.35,2.35 0 0 1 0,-4.7 v 0 a 11.726,11.726 0 0 1 2.025,23.278 11.206,11.206 0 0 1 -2.007,0.185 z"
       style="fill:#66b8ff"
       id="path11" />
    <path
       d="m 44.486,33.866 a 2.349,2.349 0 0 1 -2.349,-2.348 v -8.7 a 2.349,2.349 0 0 1 2.349,-2.348 h 5.045 a 2.35,2.35 0 0 1 0,4.7 h -2.7 v 6.35 a 2.348,2.348 0 0 1 -2.345,2.346 z"
       style="fill:#66b8ff"
       id="path12" />
    <path
       d="M 58.601,32.5"
       style="fill:none;stroke:#66b8ff;stroke-width:6px;stroke-linecap:round;stroke-linejoin:round"
       id="path13" />
    <path
       d="m 18.973,43.832 h -4.415 c -0.355,0 -0.7,-0.013 -1.053,-0.043 a 14.556,14.556 0 0 1 -4.028,-28.162 2.348,2.348 0 1 1 1.639,4.4 9.859,9.859 0 0 0 2.754,19.074 c 0.254,0.022 0.468,0.029 0.687,0.029 h 4.416 a 2.35,2.35 0 0 1 0,4.7 z"
       style="fill:#66b8ff"
       id="path14" />
    <path
       d="m 3.558,26.483 a 2.35,2.35 0 0 1 -2.133,-3.328 14.6,14.6 0 0 1 19.33,-7.17 2.349,2.349 0 0 1 -1.959,4.269 9.892,9.892 0 0 0 -13.1,4.859 2.349,2.349 0 0 1 -2.138,1.37 z"
       style="fill:#66b8ff"
       id="path15" />
    <path
       d="m 44.58,17.76 a 2.349,2.349 0 0 1 -2.349,-2.348 10.718,10.718 0 0 0 -20.473,-4.445 2.3484585,2.3484585 0 1 1 -4.273,-1.95 15.415,15.415 0 0 1 29.44,6.4 2.347,2.347 0 0 1 -2.345,2.343 z"
       style="fill:#66b8ff"
       id="path16" />
  </g>
</svg>
