<?xml version="1.0" encoding="UTF-8"?>
<svg id="Capa_1" data-name="Capa 1" xmlns="http://www.w3.org/2000/svg" viewBox="0 0 310.42 310.42">
  <defs>
    <style>
      .cls-1 {
        fill: #5bd9ba;
      }

      .cls-2 {
        fill: #fff;
      }

      .cls-3 {
        fill: #1831b1;
      }

      .cls-4 {
        fill: #4095f6;
      }

      .cls-5 {
        fill: #122159;
      }
    </style>
  </defs>
  <path class="cls-2" d="M105.3,276.09c9.96,0,19.67,3.93,26.8,10.94l7.62,7.5c9.22,9.1,24.22,8.97,33.31-.25l7.5-7.62c8.61-8.73,20.9-12.78,32.95-11.06l10.45,1.6c6.27.98,12.42-.61,17.46-4.43,5.04-3.69,8.36-9.22,9.34-15.49l1.6-10.45c1.84-12.05,9.34-22.62,20.16-28.27l9.47-4.92c11.56-6.02,15.98-20.28,10.08-31.84l-4.92-9.47c-5.65-10.82-5.78-23.85-.37-34.67l4.67-9.47c5.78-11.68,1.11-25.82-10.57-31.59l-9.47-4.79c-10.94-5.41-18.69-15.86-20.65-27.91l-1.72-10.45c-2.09-12.78-14.38-21.51-27.17-19.42l-10.45,1.72h0c-12.05,1.97-24.46-1.84-33.07-10.45l-7.62-7.5c-9.22-9.1-24.22-8.97-33.31.25l-7.5,7.62c-8.61,8.73-20.9,12.78-32.95,11.06l-10.45-1.6c-6.27-.86-12.42.61-17.46,4.43-5.04,3.69-8.36,9.22-9.34,15.49l-1.6,10.45c-1.84,12.05-9.34,22.62-20.16,28.27l-9.47,4.92c-11.56,6.02-15.98,20.28-10.08,31.84l4.92,9.47c5.65,10.82,5.78,23.85.37,34.67l-4.67,9.47c-5.78,11.68-1.11,25.82,10.57,31.59l9.47,4.79c10.94,5.41,18.69,15.86,20.65,27.91l1.72,10.45c2.09,12.78,14.38,21.51,27.17,19.42l10.45-1.72c2.09-.37,4.18-.49,6.27-.49h0Z"/>
  <g>
    <path class="cls-5" d="M176.61,198.81h6.93v12.82h20.01v6.4h-19.98v16.16c0,1.41.15,2.8.67,4.13.78,2.01,2.22,3.32,4.3,3.87,1.89.5,3.79.5,5.64-.11,2.78-.92,4.08-3.04,4.47-5.8.13-.91.13-1.83.21-2.78h6.79c0,.87.05,1.75,0,2.62-.2,2.73-.92,5.29-2.53,7.55-1.88,2.66-4.51,4.17-7.64,4.86-3.59.78-7.15.69-10.62-.59-4.25-1.57-6.75-4.7-7.75-9.04-.31-1.36-.49-2.78-.49-4.17-.04-11.79-.03-23.57-.03-35.36,0-.18.02-.35.03-.56h0Z"/>
    <path class="cls-5" d="M127.55,224.81h-6.53c-.3,0-.5-.04-.65-.37-2.26-5.02-6.29-7.25-11.65-7.26-3.78-.01-7.04,1.27-9.54,4.21-1.69,2-2.54,4.35-2.78,6.92-.27,2.93.14,5.73,1.63,8.31,1.89,3.28,4.79,5.13,8.48,5.71,3.27.51,6.41.07,9.28-1.68,2.04-1.26,3.54-3,4.48-5.21.18-.44.4-.59.89-.58,2.11.03,4.21.01,6.4.01-.05.26-.08.47-.13.67-1.87,6.48-6.05,10.72-12.5,12.6-5.57,1.61-11.04,1.18-16.17-1.6-5.23-2.84-8.23-7.36-9.21-13.18-.75-4.49-.21-8.86,1.98-12.91,2.86-5.28,7.39-8.29,13.23-9.37,4.05-.75,8.05-.47,11.9,1.07,5.62,2.24,9.19,6.34,10.81,12.16.04.15.05.31.08.53h0Z"/>
    <path class="cls-5" d="M162.35,211.68h6.99v18.77c0,3.07-.39,6.08-1.61,8.94-1.85,4.35-5.08,7.22-9.56,8.61-4.45,1.38-8.96,1.4-13.41.06-5.85-1.77-9.36-5.79-10.69-11.68-.41-1.8-.6-3.69-.62-5.55-.07-6.22-.03-12.45-.03-18.67v-.46h6.99v18.77c0,2.39.31,4.72,1.44,6.88,1.55,2.98,4.1,4.53,7.36,5.01,2.31.34,4.61.22,6.82-.65,3.42-1.33,5.25-3.98,5.94-7.46.26-1.31.36-2.67.37-4,.04-5.94.01-11.89.01-17.83v-.74h0Z"/>
    <path class="cls-5" d="M219.82,248h-6.92v-36.32h6.92v36.32Z"/>
    <path class="cls-5" d="M216.32,205.91c-2.76,0-4.85-2.1-4.86-4.9-.01-2.78,2.09-4.88,4.87-4.88s4.87,2.1,4.86,4.88c-.01,2.79-2.1,4.89-4.86,4.89h0Z"/>
  </g>
  <g>
    <path class="cls-1" d="M151.14,191.13c-4.15,0-7.77-.92-10.84-2.74-6.81-4.06-10.76-12.28-12.08-25.14-1.16-11.32-.41-24.94,2-36.44,2.09-9.96,6.45-23.3,15.34-30.25l.09-.06c6.42-4.48,12.66-2.63,16,1.19,2.82,3.22,4.74,8.41,6.6,13.42,1.19,3.19,2.3,6.21,3.6,8.65,4.31,7.84,11.68,14.19,18.18,19.79,7.96,6.85,14.83,12.77,13.37,19.52h0c-1.69,7.82-10.2,13.55-15.28,16.98-6.33,4.27-12.77,7.92-19.17,10.88l-.07.03c-6.69,2.78-12.62,4.16-17.74,4.16h0ZM147.93,99.68c-14.24,11.18-17.83,43.66-15.83,63.18,1.19,11.54,4.52,18.79,10.2,22.18,5.72,3.42,14.15,2.85,25.06-1.66,6.2-2.86,12.45-6.42,18.59-10.56,4.59-3.1,12.29-8.29,13.65-14.57h0c.97-4.49-5.09-9.7-12.11-15.74-6.75-5.81-14.41-12.41-19.07-20.89-1.43-2.7-2.65-5.98-3.83-9.15-1.73-4.68-3.53-9.52-5.88-12.2-2.02-2.32-6.06-3.86-10.78-.59h0Z"/>
    <path class="cls-4" d="M146.05,191.14c-2.26,0-4.41-.35-6.42-1.07-7.47-2.66-12.94-9.96-16.73-22.32-3.34-10.88-5.25-24.38-5.1-36.14.12-10.18,1.81-24.1,9.18-32.65l.07-.08c5.42-5.64,11.91-5.03,15.93-1.94,3.39,2.62,6.28,7.33,9.08,11.89,1.78,2.9,3.46,5.64,5.21,7.79,5.74,6.85,14.21,11.64,21.68,15.88,9.14,5.18,17.03,9.65,16.91,16.56-.14,7.99-7.38,15.28-11.69,19.62-5.37,5.41-10.99,10.25-16.69,14.39l-.06.04c-7.99,5.33-15.14,8.02-21.35,8.02h0ZM129.89,101.56c-11.8,13.73-9.01,46.29-3.26,65.05,3.4,11.09,8.08,17.57,14.31,19.78,6.28,2.24,14.44.06,24.25-6.49,5.52-4.01,10.97-8.71,16.19-13.97,3.9-3.93,10.45-10.52,10.56-16.95l1.95.04-1.95-.04c.08-4.59-6.87-8.53-14.92-13.09-7.75-4.39-16.55-9.38-22.76-16.78-1.92-2.36-3.76-5.35-5.53-8.24-2.61-4.25-5.31-8.65-8.14-10.83-2.44-1.88-6.7-2.61-10.69,1.51h0Z"/>
    <path class="cls-3" d="M141.36,191.15c-1.21,0-2.39-.11-3.56-.35-7.78-1.54-14.26-7.96-19.82-19.63-4.89-10.27-8.75-23.35-10.34-35-1.37-10.09-1.74-24.11,4.31-33.64l.06-.09c4.54-6.37,11.05-6.72,15.48-4.25,3.74,2.09,7.28,6.33,10.72,10.43,2.19,2.61,4.25,5.08,6.29,6.94,6.69,5.94,15.76,9.44,23.76,12.54,9.8,3.78,18.25,7.06,19.14,13.91h0c1.03,7.93-5.06,16.19-8.7,21.12-4.52,6.14-9.37,11.75-14.41,16.68l-.06.05c-8.29,7.49-15.97,11.27-22.9,11.27h.01ZM115.23,104.67c-5.38,8.53-4.99,21.55-3.71,30.98,1.53,11.27,5.27,23.92,9.99,33.85,4.98,10.47,10.56,16.19,17.05,17.48,6.54,1.3,14.29-2.06,23.05-9.97,4.88-4.78,9.58-10.22,13.97-16.18,3.29-4.47,8.8-11.94,7.97-18.3h0c-.59-4.55-8.04-7.43-16.68-10.77-8.31-3.22-17.74-6.86-24.97-13.28-2.25-2.06-4.5-4.74-6.67-7.33-3.2-3.83-6.52-7.78-9.63-9.53-2.69-1.51-7.01-1.6-10.36,3.06h0Z"/>
  </g>
  <path class="cls-5" d="M156.13,306.21c-7.25,0-14.51-2.7-20.04-8.11l-7.62-7.5c-7.62-7.38-18.32-10.82-28.77-9.1l-10.45,1.72c-15.49,2.58-30.24-7.87-32.95-23.48l-1.72-10.45c-1.72-10.45-8.48-19.55-17.95-24.22l-9.47-4.79c-14.14-7.01-19.79-24.22-12.78-38.35l4.67-9.47c4.79-9.47,4.67-20.78-.25-30.24l-4.92-9.47c-7.25-14.01-1.84-31.22,12.17-38.48l9.47-4.92c9.47-4.92,15.98-14.14,17.58-24.59l1.6-10.45c1.11-7.5,5.16-14.26,11.31-18.69,6.15-4.55,13.65-6.39,21.27-5.29l10.45,1.6c10.45,1.6,21.14-1.97,28.64-9.59l7.5-7.62c11.06-11.19,29.13-11.43,40.44-.37l7.62,7.5c7.62,7.5,18.32,10.82,28.77,9.1l10.45-1.72c15.61-2.58,30.24,7.87,32.95,23.48l1.72,10.45c1.72,10.45,8.48,19.55,17.95,24.22l9.47,4.79c14.14,7.01,19.79,24.22,12.78,38.35l-4.67,9.47c-4.67,9.47-4.67,20.78.25,30.24l4.92,9.47c7.25,14.01,1.84,31.22-12.17,38.48l-9.47,4.92c-9.47,4.92-15.98,14.14-17.58,24.59l-1.6,10.45c-1.11,7.5-5.16,14.26-11.31,18.69-6.15,4.55-13.65,6.39-21.27,5.29l-10.45-1.6c-10.45-1.6-21.14,1.97-28.64,9.59l-7.5,7.62c-5.53,5.65-13.03,8.48-20.41,8.48h0ZM105.11,276.09c9.96,0,19.67,3.93,26.8,10.94l7.62,7.5c9.22,9.1,24.22,8.97,33.31-.25l7.5-7.62c8.61-8.73,20.9-12.78,32.95-11.06l10.45,1.6c6.27.98,12.42-.61,17.46-4.43,5.04-3.69,8.36-9.22,9.34-15.49l1.6-10.45c1.84-12.05,9.34-22.62,20.16-28.27l9.47-4.92c11.56-6.02,15.98-20.28,10.08-31.84l-4.92-9.47c-5.65-10.82-5.78-23.85-.37-34.67l4.67-9.47c5.78-11.68,1.11-25.82-10.57-31.59l-9.47-4.79c-10.94-5.41-18.69-15.86-20.65-27.91l-1.72-10.45c-2.09-12.78-14.38-21.51-27.17-19.42l-10.45,1.72h0c-12.05,1.97-24.46-1.84-33.07-10.45l-7.62-7.5c-9.22-9.1-24.22-8.97-33.31.25l-7.5,7.62c-8.61,8.73-20.9,12.78-32.95,11.06l-10.45-1.6c-6.27-.86-12.42.61-17.46,4.43-5.04,3.69-8.36,9.22-9.34,15.49l-1.6,10.45c-1.84,12.05-9.34,22.62-20.16,28.27l-9.47,4.92c-11.56,6.02-15.98,20.28-10.08,31.84l4.92,9.47c5.65,10.82,5.78,23.85.37,34.67l-4.67,9.47c-5.78,11.68-1.11,25.82,10.57,31.59l9.47,4.79c10.94,5.41,18.69,15.86,20.65,27.91l1.72,10.45c2.09,12.78,14.38,21.51,27.17,19.42l10.45-1.72c2.09-.37,4.18-.49,6.27-.49h0ZM210.71,33.42h0Z"/>
  <g>
    <path class="cls-1" d="M107.82,74.55h-3.12l-.87-7.6-3.35,7.6h-1.89l-3.29-7.6-.89,7.6h-3.33l1.97-14.07h1.98l4.5,9.7,4.39-9.7h1.96l1.95,14.07Z"/>
    <path class="cls-1" d="M120.53,63.24h-6.88v2.92h5.33v2.64h-5.33v2.97h6.93v2.77h-10.3v-14.07h10.26v2.77Z"/>
    <path class="cls-1" d="M139.05,74.55h-3.12l-.87-7.6-3.35,7.6h-1.89l-3.29-7.6-.89,7.6h-3.33l1.97-14.07h1.98l4.5,9.7,4.39-9.7h1.96l1.95,14.07Z"/>
    <path class="cls-1" d="M152.2,68.41c.49.59.73,1.32.73,2.19,0,1.2-.47,2.16-1.41,2.87-.94.72-2.19,1.08-3.74,1.08h-6.28v-14.07h6c1.46,0,2.61.33,3.46.99.83.67,1.26,1.56,1.26,2.71,0,1.32-.61,2.29-1.84,2.92.73.29,1.34.73,1.83,1.32ZM147.04,62.98h-2.17v3.3h2.17c1.18,0,1.92-.63,1.92-1.65,0-1.07-.71-1.65-1.92-1.65ZM147.28,72.03c1.47,0,2.33-.65,2.33-1.8,0-1.07-.87-1.8-2.17-1.8h-2.56v3.6h2.4Z"/>
    <path class="cls-1" d="M165.53,63.24h-6.88v2.92h5.33v2.64h-5.33v2.97h6.93v2.77h-10.3v-14.07h10.26v2.77Z"/>
    <path class="cls-1" d="M179.82,74.28l-.16.26h-3.35l-2.84-5.29h-1.97v5.29h-3.37v-14.07h6.06c1.75,0,3.09.39,4.03,1.18.94.79,1.41,1.89,1.41,3.3,0,1.85-1.04,3.2-2.77,3.87l2.97,5.46ZM171.49,63.24v3.7h2.71c1.15,0,1.97-.72,1.97-1.82,0-.56-.18-1.01-.55-1.36-.37-.35-.84-.52-1.42-.52h-2.71Z"/>
    <path class="cls-1" d="M188.24,72.73c-1.47-1.39-2.21-3.13-2.21-5.22s.74-3.84,2.21-5.22c1.47-1.38,3.31-2.07,5.52-2.07s4.03.7,5.5,2.08c1.47,1.4,2.21,3.13,2.21,5.21s-.74,3.82-2.21,5.21c-1.47,1.4-3.31,2.09-5.5,2.09s-4.05-.7-5.52-2.08ZM193.76,71.75c1.2,0,2.21-.4,3.04-1.21.81-.8,1.23-1.82,1.23-3.05s-.41-2.24-1.23-3.04c-.83-.79-1.84-1.2-3.04-1.2s-2.21.4-3.04,1.2c-.82.8-1.24,1.82-1.24,3.04s.41,2.24,1.24,3.05c.83.8,1.84,1.21,3.04,1.21Z"/>
    <path class="cls-1" d="M213.76,63.24h-6.52v3.14h5v2.64h-5v5.52h-3.37v-14.07h9.9v2.77Z"/>
    <path class="cls-1" d="M215.82,66.99c-.41-.4-.61-.89-.61-1.47s.2-1.05.61-1.46c.4-.4.89-.6,1.47-.6s1.05.2,1.45.6c.4.41.6.9.6,1.46s-.2,1.07-.6,1.47c-.4.41-.89.61-1.45.61s-1.07-.2-1.47-.61ZM215.82,74.2c-.41-.4-.61-.89-.61-1.45s.2-1.07.61-1.48.89-.6,1.47-.6,1.05.2,1.45.6c.4.41.6.9.6,1.48s-.2,1.05-.6,1.45c-.4.41-.89.61-1.45.61s-1.07-.2-1.47-.61Z"/>
  </g>
</svg>